<?xml version="1.0" encoding="UTF-8" standalone="no"?>
<!-- Created with Inkscape (http://www.inkscape.org/) -->

<svg
   width="100mm"
   height="100mm"
   viewBox="0 0 100 100"
   version="1.1"
   id="svg1"
   xml:space="preserve"
   xmlns:inkscape="http://www.inkscape.org/namespaces/inkscape"
   xmlns:sodipodi="http://sodipodi.sourceforge.net/DTD/sodipodi-0.dtd"
   xmlns="http://www.w3.org/2000/svg"
   xmlns:svg="http://www.w3.org/2000/svg"><sodipodi:namedview
     id="namedview1"
     pagecolor="#ffffff"
     bordercolor="#000000"
     borderopacity="0.25"
     inkscape:showpageshadow="2"
     inkscape:pageopacity="0.0"
     inkscape:pagecheckerboard="0"
     inkscape:deskcolor="#d1d1d1"
     inkscape:document-units="mm"
     inkscape:zoom="1.4627806"
     inkscape:cx="216.02693"
     inkscape:cy="126.12965"
     inkscape:window-width="1920"
     inkscape:window-height="1017"
     inkscape:window-x="-8"
     inkscape:window-y="-8"
     inkscape:window-maximized="1"
     inkscape:current-layer="layer1" /><defs
     id="defs1" /><g
     inkscape:label="Camada 1"
     inkscape:groupmode="layer"
     id="layer1"><g
       id="g5"
       transform="translate(3.8909944,2.3876396)"><text
         xml:space="preserve"
         style="font-style:normal;font-variant:normal;font-weight:normal;font-stretch:normal;font-size:25.6089px;font-family:'Dalek Pinpoint';-inkscape-font-specification:'Dalek Pinpoint, Normal';font-variant-ligatures:normal;font-variant-caps:normal;font-variant-numeric:normal;font-variant-east-asian:normal;fill:#000000;fill-opacity:1;stroke:#000000;stroke-width:0.192369;stroke-opacity:1"
         x="51.345245"
         y="56.701981"
         id="text4"><tspan
           sodipodi:role="line"
           id="tspan4"
           style="stroke-width:0.192369"
           x="51.345245"
           y="56.701981">AB</tspan></text><path
         style="fill:#0a0a0a"
         d="m 48.896139,82.407696 c -0.224604,-0.130927 -0.249899,-0.250139 -0.123575,-0.582397 0.178593,-0.469733 0.208132,-1.925437 0.05098,-2.512402 -0.0868,-0.324222 -0.185384,-0.373653 -0.615623,-0.308688 -0.281747,0.04254 -1.513221,0.238772 -2.736609,0.436065 -6.48373,1.045618 -13.55285,-0.04181 -19.68954,-3.02881 C 15.484542,71.399349 8.4923319,61.629363 7.0889019,50.292522 c -0.25212,-2.036618 -0.21248,-6.726136 0.0732,-8.654539 1.34411,-9.074471 5.9807201,-16.924559 13.1824301,-22.318736 8.65158,-6.480152 20.293517,-8.396665 30.481718,-5.017946 4.372128,1.449931 7.460972,3.200966 11.871602,6.729895 0.218941,0.175174 0.442734,0.273838 0.497318,0.219255 0.05458,-0.05458 0.30893,-0.815586 0.565214,-1.691116 0.495955,-1.694309 0.606444,-1.917016 0.797607,-1.607708 0.26092,0.422178 1.69874,7.003654 1.560296,7.142098 -0.117592,0.117592 -4.876208,-0.66574 -6.624461,-1.090475 -0.55678,-0.135268 -0.302013,-0.342993 1.509753,-1.230977 0.832032,-0.407796 1.534233,-0.818742 1.560447,-0.913212 0.06442,-0.232165 -2.111925,-1.524891 -4.29645,-2.552046 -6.97154,-3.27799 -15.376105,-4.160987 -22.764564,-2.39168 -7.20124,1.724473 -12.63455,5.633285 -17.41682,12.529962 -2.80381,4.043459 -4.68311,8.813662 -5.24438,13.311734 -0.28456,2.280478 -0.12711,6.48727 0.32386,8.653156 0.70947,3.407366 2.24086,7.247897 4.08589,10.246869 2.29559,3.731361 6.11691,7.965297 9.1081,10.091599 5.20677,3.701245 12.32159,5.527733 19.224637,4.935268 1.240431,-0.106462 2.322461,-0.260699 2.404511,-0.342749 0.181963,-0.181964 -0.313603,-2.58181 -0.640871,-3.103508 -0.125909,-0.200709 -0.228924,-0.408391 -0.228924,-0.461514 0,-0.198469 1.165657,-0.57407 1.781597,-0.57407 0.812788,0 1.18389,0.39102 1.18511,1.248719 0.0013,0.901522 0.299925,1.881835 0.573283,1.881835 0.227282,0 2.188561,-0.424339 2.783905,-0.602321 0.274317,-0.08201 0.298108,-0.205824 0.207014,-1.077361 -0.05661,-0.541587 -0.225116,-1.242209 -0.374464,-1.556937 -0.158261,-0.333509 -0.210254,-0.631967 -0.124631,-0.715419 0.190878,-0.186039 2.339702,-0.990943 2.645485,-0.990943 0.178606,0 0.209452,0.136176 0.12854,0.567472 -0.139379,0.742956 0.247303,2.899508 0.540041,3.011842 0.43388,0.166495 4.13041,-1.799654 7.19646,-3.827729 l 0.477653,-0.315949 -0.195793,0.365844 c -0.313008,0.58486 -2.734327,2.578589 -4.878663,4.01712 -1.087456,0.729522 -2.058922,1.392155 -2.158814,1.472519 -0.129674,0.104323 -0.04827,0.699862 0.284596,2.082139 0.624635,2.593872 0.618177,2.798687 -0.09768,3.097793 -0.314264,0.131308 -0.762916,0.238741 -0.997004,0.238741 -0.505307,0 -0.758839,-0.50988 -1.26665,-2.547369 -0.181578,-0.728548 -0.391866,-1.390441 -0.467307,-1.470874 -0.142421,-0.151846 -2.727548,0.791716 -3.063106,1.118022 -0.13902,0.135187 -0.123435,0.553663 0.061,1.63786 0.307778,1.809293 0.201,2.110122 -0.87968,2.478347 -0.898058,0.305999 -1.188079,0.322895 -1.583724,0.09226 z M 44.702972,60.260388 c -0.803953,-0.563111 -0.600357,-1.47979 0.583172,-2.625684 0.366201,-0.354556 0.627443,-0.706744 0.580537,-0.782638 -0.0469,-0.07589 -2.305248,-0.137991 -5.018539,-0.137991 h -4.93326 v -9.38194 c 0,-6.304073 -0.0561,-9.416606 -0.17097,-9.487608 -0.094,-0.05812 -0.46498,0.15994 -0.82431,0.484574 -1.09045,0.985153 -2.35496,0.675328 -2.35496,-0.577001 0,-0.430234 0.37117,-0.875678 2.53815,-3.046045 2.3018,-2.305404 2.59148,-2.542118 3.11094,-2.542118 0.51905,0 0.80908,0.236293 3.091356,2.518566 2.203506,2.203506 2.518566,2.584818 2.518566,3.048172 0,0.694139 -0.500668,1.188669 -1.203423,1.188669 -0.405817,0 -0.686615,-0.14677 -1.103301,-0.576681 -0.307418,-0.317175 -0.65637,-0.576681 -0.775448,-0.576681 -0.176273,0 -0.20854,1.385485 -0.173636,7.455662 l 0.04287,7.455663 2.595065,0.04538 c 1.427285,0.02496 2.595064,-0.01521 2.595064,-0.08927 0,-0.07406 -0.328127,-0.456677 -0.729171,-0.850272 -0.858958,-0.843003 -1.019061,-1.316822 -0.671839,-1.988275 0.264674,-0.511823 0.830012,-0.758874 1.355156,-0.5922 0.169103,0.05367 1.434915,1.233538 2.812914,2.621926 2.071549,2.087166 2.505453,2.606884 2.505453,3.000953 0,0.395663 -0.441714,0.918325 -2.600768,3.077379 -2.724985,2.724985 -2.99966,2.896763 -3.769619,2.357463 z"
         id="path5" /></g></g></svg>
